<svg xmlns="http://www.w3.org/2000/svg" viewBox="0 0 512 512" role="img" aria-labelledby="title desc">
  <title id="title">stylelint-plugin-container-query-sanity logo</title>
  <desc id="desc">A layered container frame with a query range line and sanity check mark.</desc>
  <defs>
    <linearGradient id="bg" x1="72" y1="56" x2="440" y2="456" gradientUnits="userSpaceOnUse">
      <stop stop-color="#1c1917"/>
      <stop offset="0.48" stop-color="#3f2d16"/>
      <stop offset="1" stop-color="#5f2f12"/>
    </linearGradient>
    <linearGradient id="frame" x1="124" y1="112" x2="398" y2="408" gradientUnits="userSpaceOnUse">
      <stop stop-color="#fef3c7"/>
      <stop offset="0.46" stop-color="#f59e0b"/>
      <stop offset="1" stop-color="#bef264"/>
    </linearGradient>
    <linearGradient id="inner" x1="152" y1="150" x2="364" y2="362" gradientUnits="userSpaceOnUse">
      <stop stop-color="#451a03"/>
      <stop offset="1" stop-color="#1a2e05"/>
    </linearGradient>
    <filter id="shadow" x="-20%" y="-20%" width="140%" height="140%">
      <feDropShadow dx="0" dy="18" stdDeviation="18" flood-color="#000" flood-opacity="0.35"/>
    </filter>
  </defs>
  <rect width="512" height="512" rx="112" fill="url(#bg)"/>
  <path d="M78 164c0-45 36-81 81-81h194c45 0 81 36 81 81v184c0 45-36 81-81 81H159c-45 0-81-36-81-81V164Z" fill="#0c0a09" opacity="0.42"/>
  <g filter="url(#shadow)">
    <path d="M118 148c0-24 20-44 44-44h188c24 0 44 20 44 44v216c0 24-20 44-44 44H162c-24 0-44-20-44-44V148Z" fill="none" stroke="url(#frame)" stroke-width="24"/>
    <path d="M164 178c0-16 13-29 29-29h126c16 0 29 13 29 29v156c0 16-13 29-29 29H193c-16 0-29-13-29-29V178Z" fill="url(#inner)" stroke="#fbbf24" stroke-width="10"/>
    <path d="M192 227h128" stroke="#fef3c7" stroke-width="22" stroke-linecap="round"/>
    <path d="M192 285h72" stroke="#bef264" stroke-width="22" stroke-linecap="round"/>
    <path d="M300 292l32 32 62-78" fill="none" stroke="#bef264" stroke-width="24" stroke-linecap="round" stroke-linejoin="round"/>
    <path d="M127 159h258M127 353h258" stroke="#fde68a" stroke-width="8" stroke-linecap="round" opacity="0.72"/>
  </g>
</svg>
